<svg width="72" height="80" viewBox="0 0 72 80" fill="none" xmlns="http://www.w3.org/2000/svg">
<path d="M35.6145 34.3047C38.5145 34.3047 40.8575 36.6597 40.8575 39.5577C40.8575 42.4567 38.5145 44.8007 35.6145 44.8007C32.7155 44.8007 30.3745 42.4567 30.3745 39.5577C30.3735 36.6587 32.7145 34.3047 35.6145 34.3047Z" fill="white"/>
<path d="M35.6146 45.4508C32.3666 45.4508 29.7236 42.8058 29.7236 39.5568C29.7236 36.3018 32.3666 33.6538 35.6146 33.6538C38.8636 33.6538 41.5076 36.3018 41.5076 39.5568C41.5076 42.8068 38.8636 45.4508 35.6146 45.4508ZM35.6146 34.9548C33.0836 34.9548 31.0246 37.0188 31.0246 39.5568C31.0246 42.0888 33.0836 44.1498 35.6146 44.1498C38.1466 44.1498 40.2076 42.0888 40.2076 39.5568C40.2066 37.0198 38.1466 34.9548 35.6146 34.9548Z" fill="#E8AAAA"/>
<path d="M20.3477 17.21C21.9877 17.669 23.1887 19.183 23.1887 20.969C23.1887 23.127 21.4397 24.874 19.2837 24.874C18.9617 24.874 18.6487 24.836 18.3547 24.757C16.6557 24.347 15.3867 22.805 15.3867 20.969C15.3867 18.812 17.1367 17.064 19.2847 17.064C19.6547 17.064 20.0047 17.113 20.3477 17.21Z" fill="#E02490" fill-opacity="0.77"/>
<path d="M19.2838 25.5241C18.8998 25.5241 18.5308 25.4771 18.1858 25.3841C16.1608 24.8951 14.7358 23.0771 14.7358 20.9681C14.7358 18.4561 16.7758 16.4121 19.2828 16.4121C19.7098 16.4121 20.1158 16.4691 20.5228 16.5831C22.4738 17.1301 23.8388 18.9331 23.8388 20.9681C23.8388 23.4801 21.7948 25.5241 19.2838 25.5241ZM19.2838 17.7141C17.4938 17.7141 16.0368 19.1741 16.0368 20.9691C16.0368 22.4761 17.0528 23.7741 18.5078 24.1251C18.7588 24.1921 19.0148 24.2241 19.2848 24.2241C21.0798 24.2241 22.5398 22.7641 22.5398 20.9691C22.5398 19.5141 21.5668 18.2261 20.1728 17.8361C19.8798 17.7531 19.5898 17.7141 19.2838 17.7141Z" fill="#E8AAAA"/>
<path d="M59.8369 18.675C57.6899 18.675 55.9419 16.928 55.9419 14.779C55.9419 14.613 55.9519 14.448 55.9699 14.28C56.2129 12.357 57.8539 10.875 59.8359 10.875C61.9939 10.875 63.7409 12.623 63.7409 14.779C63.7409 15.062 63.7109 15.325 63.6519 15.59C63.2839 17.347 61.7109 18.675 59.8369 18.675Z" fill="#E02490" fill-opacity="0.77"/>
<path d="M59.837 19.3251C57.331 19.3251 55.292 17.2861 55.292 14.7791C55.292 14.5901 55.304 14.4011 55.324 14.2091C55.612 11.9341 57.552 10.2251 59.837 10.2251C62.349 10.2251 64.393 12.2681 64.393 14.7801C64.393 15.1031 64.359 15.4151 64.288 15.7311C63.85 17.8101 61.978 19.3251 59.837 19.3251ZM59.837 11.5251C58.205 11.5251 56.82 12.7441 56.615 14.3621C56.6 14.4951 56.593 14.6361 56.593 14.7791C56.593 16.5691 58.048 18.0241 59.837 18.0241C61.366 18.0241 62.704 16.9441 63.018 15.4561C63.069 15.2231 63.092 15.0101 63.092 14.7791C63.092 12.9851 61.632 11.5251 59.837 11.5251Z" fill="#E8AAAA"/>
<path d="M48.3554 53.1167C48.7744 53.7427 49.0204 54.4937 49.0204 55.2957C49.0204 57.4517 47.2634 59.2007 45.1164 59.2007C43.7374 59.2007 42.5284 58.4867 41.8354 57.4137C41.4444 56.8087 41.2114 56.0757 41.2114 55.2957C41.2114 53.1477 42.9584 51.4087 45.1164 51.4087C46.4514 51.4087 47.6424 52.0927 48.3554 53.1167Z" fill="#E02490" fill-opacity="0.77"/>
<path d="M45.1165 59.8518C43.5625 59.8518 42.1325 59.0728 41.2895 57.7668C40.8125 57.0288 40.5615 56.1738 40.5615 55.2958C40.5615 52.7938 42.6055 50.7588 45.1175 50.7588C46.6145 50.7588 48.0245 51.5018 48.8895 52.7458C49.4035 53.5128 49.6715 54.3918 49.6715 55.2958C49.6705 57.8078 47.6275 59.8518 45.1165 59.8518ZM45.1165 52.0598C43.3215 52.0598 41.8615 53.5108 41.8615 55.2958C41.8615 55.9238 42.0415 56.5338 42.3815 57.0618C42.9845 57.9948 44.0065 58.5508 45.1165 58.5508C46.9105 58.5508 48.3705 57.0908 48.3705 55.2958C48.3705 54.6498 48.1795 54.0218 47.8155 53.4788C47.1995 52.5938 46.1875 52.0598 45.1165 52.0598Z" fill="#E8AAAA"/>
<path d="M64.3186 39.5582C61.5366 43.0922 57.9056 46.6362 53.5986 49.9452C54.0376 46.6462 54.2716 43.1612 54.2716 39.5582C54.2716 35.9662 54.0386 32.4802 53.5986 29.1802C57.9056 32.4892 61.5356 36.0222 64.3186 39.5582Z" fill="#F4FCFF"/>
<path d="M53.5987 50.5951C53.4867 50.5951 53.3737 50.5661 53.2737 50.5071C53.0467 50.3751 52.9207 50.1191 52.9547 49.8591C53.3977 46.5361 53.6217 43.0701 53.6217 39.5581C53.6217 36.0531 53.3977 32.5901 52.9547 29.2661C52.9207 29.0051 53.0467 28.7491 53.2737 28.6181C53.5007 28.4851 53.7867 28.5051 53.9957 28.6651C58.3227 31.9911 61.9687 35.5211 64.8297 39.1561C65.0157 39.3921 65.0157 39.7241 64.8297 39.9611C61.9527 43.6151 58.3077 47.1481 53.9957 50.4611C53.8787 50.5491 53.7397 50.5951 53.5987 50.5951ZM54.4347 30.6631C54.7577 33.5591 54.9217 36.5431 54.9217 39.5581C54.9217 42.5791 54.7577 45.5661 54.4347 48.4611C57.9727 45.6221 61.0117 42.6331 63.4877 39.5581C61.0237 36.4971 57.9847 33.5111 54.4347 30.6631Z" fill="#E8AAAA"/>
<path d="M53.5985 49.9438C52.8855 55.3228 51.6355 60.2438 49.9655 64.4128C45.5145 63.7688 40.6345 62.3929 35.6045 60.3119C37.6655 59.4729 39.7465 58.4968 41.8345 57.4138C42.5275 58.4868 43.7365 59.2008 45.1155 59.2008C47.2625 59.2008 49.0195 57.4518 49.0195 55.2958C49.0195 54.4938 48.7735 53.7429 48.3545 53.1169L48.7735 53.3618C50.4655 52.2588 52.0755 51.1158 53.5985 49.9438Z" fill="#F4FCFF"/>
<path d="M49.9656 65.0638C49.9356 65.0638 49.9046 65.0608 49.8726 65.0568C45.2836 64.3928 40.3996 62.9988 35.3556 60.9128C35.1116 60.8118 34.9536 60.5738 34.9536 60.3098C34.9546 60.0458 35.1146 59.8088 35.3586 59.7098C37.3146 58.9148 39.3926 57.9478 41.5356 56.8368C41.8296 56.6818 42.1986 56.7788 42.3806 57.0618C42.9836 57.9948 44.0056 58.5508 45.1156 58.5508C46.9096 58.5508 48.3696 57.0908 48.3696 55.2958C48.3696 54.6498 48.1786 54.0218 47.8146 53.4788C47.6456 53.2268 47.6736 52.8928 47.8806 52.6718C48.0896 52.4498 48.4186 52.3998 48.6826 52.5568L48.7536 52.5978C50.2866 51.5858 51.7806 50.5218 53.2006 49.4288C53.4086 49.2688 53.6916 49.2488 53.9226 49.3818C54.1506 49.5128 54.2766 49.7688 54.2416 50.0288C53.5246 55.4368 52.2886 60.3578 50.5676 64.6548C50.4696 64.9038 50.2286 65.0638 49.9656 65.0638ZM37.3126 60.2978C41.5536 61.9468 45.6616 63.0868 49.5506 63.6928C50.9716 60.0278 52.0396 55.9048 52.7326 51.4088C51.6496 52.2068 50.5316 52.9838 49.3936 53.7328C49.5766 54.2318 49.6706 54.7588 49.6706 55.2958C49.6706 57.8078 47.6276 59.8518 45.1156 59.8518C43.7626 59.8518 42.5026 59.2598 41.6416 58.2448C40.1606 58.9998 38.7116 59.6878 37.3126 60.2978Z" fill="#E8AAAA"/>
<path d="M26.2908 55.7145C29.4058 57.5105 32.5288 59.0445 35.6048 60.3125C30.5868 62.3925 25.7078 63.7695 21.2638 64.4135C19.5958 60.2355 18.3438 55.3235 17.6328 49.9355C20.2788 51.9755 23.1788 53.9175 26.2908 55.7145Z" fill="#F4FCFF"/>
<path d="M21.2639 65.0638C21.0009 65.0638 20.7609 64.9038 20.6609 64.6548C18.9359 60.3338 17.7009 55.4098 16.9889 50.0208C16.9549 49.7598 17.0809 49.5038 17.3089 49.3728C17.5369 49.2438 17.8219 49.2608 18.0299 49.4218C20.6819 51.4658 23.5699 53.3948 26.6159 55.1528C29.6549 56.9048 32.7629 58.4388 35.8519 59.7128C36.0949 59.8128 36.2529 60.0498 36.2539 60.3128C36.2539 60.5768 36.0959 60.8138 35.8529 60.9148C30.8249 62.9988 25.9479 64.3938 21.3559 65.0588C21.3259 65.0598 21.2949 65.0638 21.2639 65.0638ZM18.4989 51.4018C19.1879 55.8828 20.2549 60.0088 21.6799 63.6928C25.5719 63.0858 29.6759 61.9448 33.9039 60.2958C31.2439 59.1328 28.5799 57.7838 25.9679 56.2778C23.3479 54.7658 20.8419 53.1298 18.4989 51.4018Z" fill="#E8AAAA"/>
<path d="M16.9596 39.5582C16.9596 43.1512 17.1936 46.6362 17.6326 49.9362C13.3266 46.6272 9.6956 43.0922 6.9126 39.5582C9.6956 36.0232 13.3266 32.4902 17.6326 29.1802C17.1936 32.4792 16.9596 35.9542 16.9596 39.5582Z" fill="#F4FCFF"/>
<path d="M17.6327 50.5862C17.4927 50.5862 17.3527 50.5402 17.2367 50.4512C12.9107 47.1272 9.26568 43.5972 6.40268 39.9602C6.21668 39.7242 6.21668 39.3922 6.40268 39.1552C9.26468 35.5192 12.9097 31.9902 17.2367 28.6642C17.4457 28.5042 17.7307 28.4852 17.9577 28.6172C18.1857 28.7482 18.3117 29.0052 18.2767 29.2652C17.8337 32.5932 17.6097 36.0562 17.6097 39.5572C17.6097 43.0042 17.8277 46.4142 18.2567 49.6942C18.2867 49.7682 18.3027 49.8502 18.3027 49.9352C18.3037 50.2982 17.9737 50.6062 17.6427 50.5852C17.6397 50.5862 17.6367 50.5862 17.6327 50.5862ZM7.74469 39.5582C10.2107 42.6212 13.2497 45.6062 16.7977 48.4532C16.4747 45.5562 16.3107 42.5702 16.3107 39.5582C16.3107 36.5462 16.4737 33.5612 16.7977 30.6632C13.2477 33.5112 10.2087 36.4972 7.74469 39.5582Z" fill="#E8AAAA"/>
<path d="M35.6148 18.8022C32.5408 20.0612 29.4068 21.6042 26.2918 23.4002C23.1798 25.1972 20.2798 27.1492 17.6338 29.1802C17.6438 29.1412 17.6438 29.1022 17.6548 29.0622C17.8478 27.5982 18.0838 26.1642 18.3558 24.7772V24.7572C18.6498 24.8362 18.9628 24.8742 19.2848 24.8742C21.4408 24.8742 23.1898 23.1272 23.1898 20.9692C23.1898 19.1832 21.9888 17.6692 20.3488 17.2102C20.6308 16.3412 20.9428 15.5122 21.2658 14.7012C25.7148 15.3462 30.5978 16.7222 35.6148 18.8022Z" fill="#F4FCFF"/>
<path d="M17.6327 29.8299C17.5077 29.8299 17.3827 29.794 17.2727 29.721C17.0477 29.572 16.9387 29.299 16.9987 29.036C17.0037 29.001 17.0187 28.92 17.0227 28.9C17.1977 27.535 17.4357 26.085 17.7127 24.665C17.7397 24.503 17.8267 24.352 17.9577 24.251C18.1187 24.128 18.3277 24.077 18.5217 24.129C18.7567 24.193 19.0127 24.224 19.2827 24.224C21.0777 24.224 22.5377 22.764 22.5377 20.969C22.5377 19.514 21.5647 18.226 20.1707 17.836C20.0007 17.788 19.8567 17.673 19.7727 17.518C19.6897 17.362 19.6727 17.178 19.7277 17.01C19.9757 16.243 20.2717 15.434 20.6587 14.461C20.7697 14.182 21.0597 14.019 21.3557 14.058C25.9577 14.725 30.8387 16.119 35.8617 18.202C36.1047 18.303 36.2627 18.5409 36.2627 18.8039C36.2617 19.0679 36.1027 19.305 35.8587 19.405C32.7977 20.658 29.6877 22.192 26.6137 23.965C23.6187 25.695 20.7297 27.623 18.0277 29.697C17.9127 29.784 17.7727 29.8299 17.6327 29.8299ZM18.8767 25.506C18.7407 26.237 18.6157 26.9749 18.5027 27.7139C20.8797 25.9639 23.3847 24.327 25.9667 22.837C28.6057 21.315 31.2707 19.967 33.9097 18.816C29.6847 17.169 25.5797 16.029 21.6797 15.42C21.4847 15.924 21.3157 16.3819 21.1647 16.8169C22.7677 17.5439 23.8387 19.1649 23.8387 20.9679C23.8387 23.4799 21.7947 25.5239 19.2827 25.5239C19.1457 25.5239 19.0097 25.518 18.8767 25.506Z" fill="#E8AAAA"/>
<path d="M49.9658 14.7012C51.6358 18.8802 52.8858 23.7912 53.5988 29.1792C50.9528 27.1392 48.0538 25.1962 44.9388 23.3992C41.8258 21.6032 38.6997 20.0712 35.6147 18.8012C40.6347 16.7222 45.5248 15.3462 49.9658 14.7012Z" fill="#F4FCFF"/>
<path d="M53.5988 29.8301C53.4578 29.8301 53.3188 29.7841 53.2029 29.6941C50.5449 27.6441 47.6548 25.7161 44.6138 23.9631C41.5868 22.2161 38.4748 20.6821 35.3678 19.4031C35.1248 19.3021 34.9658 19.0651 34.9648 18.8021C34.9648 18.5381 35.1228 18.3011 35.3658 18.2001C40.3908 16.1191 45.2708 14.7241 49.8728 14.0561C50.1858 14.0211 50.4588 14.1791 50.5698 14.4581C52.2768 18.7291 53.5058 23.6001 54.2218 28.9361C54.2518 29.0111 54.2688 29.0921 54.2688 29.1781C54.2688 29.5371 53.9778 29.8281 53.6188 29.8281C53.6138 29.8311 53.6058 29.8311 53.5988 29.8301ZM37.3188 18.8181C39.9928 19.9851 42.6588 21.3341 45.2638 22.8361C47.8788 24.3451 50.3848 25.9821 52.7328 27.7121C52.0418 23.2251 50.9738 19.0991 49.5508 15.4211C45.6988 16.0251 41.5078 17.1901 37.3188 18.8181Z" fill="#E8AAAA"/>
<path d="M40.8575 39.5578C40.8575 36.6598 38.5145 34.3047 35.6145 34.3047C32.7155 34.3047 30.3745 36.6598 30.3745 39.5578C30.3745 42.4568 32.7155 44.8008 35.6145 44.8008C38.5145 44.8008 40.8575 42.4568 40.8575 39.5578ZM54.2715 39.5578C54.2715 43.1608 54.0385 46.6458 53.5985 49.9448C52.0755 51.1168 50.4655 52.2588 48.7745 53.3628L48.3555 53.1178C47.6425 52.0938 46.4515 51.4098 45.1165 51.4098C42.9585 51.4098 41.2115 53.1478 41.2115 55.2968C41.2115 56.0768 41.4445 56.8098 41.8355 57.4148C39.7465 58.4978 37.6665 59.4747 35.6055 60.3127C32.5305 59.0447 29.4075 57.5108 26.2915 55.7148C23.1795 53.9178 20.2795 51.9758 17.6335 49.9358C17.1945 46.6358 16.9604 43.1508 16.9604 39.5578C16.9604 35.9548 17.1945 32.4797 17.6335 29.1797C20.2795 27.1487 23.1795 25.1967 26.2915 23.3997C29.4065 21.6037 32.5405 20.0608 35.6145 18.8018C38.6995 20.0718 41.8255 21.6037 44.9385 23.3997C48.0535 25.1967 50.9535 27.1397 53.5985 29.1797C54.0375 32.4787 54.2715 35.9658 54.2715 39.5578Z" fill="#F4FCFF"/>
<path d="M35.6046 60.9629C35.5206 60.9629 35.4366 60.9459 35.3566 60.9129C32.2146 59.6179 29.0556 58.0589 25.9666 56.2779C22.8696 54.4899 19.9326 52.5299 17.2356 50.4499C17.0996 50.3459 17.0106 50.1909 16.9876 50.0209C16.5376 46.6359 16.3096 43.1159 16.3096 39.5569C16.3096 35.9979 16.5376 32.4779 16.9876 29.0929C17.0106 28.9229 17.0996 28.7679 17.2366 28.6629C19.9836 26.5549 22.9206 24.5939 25.9656 22.8359C29.0906 21.0339 32.2536 19.4749 35.3676 18.1989C35.5256 18.1349 35.7026 18.1349 35.8606 18.1989C39.0216 19.5009 42.1846 21.0599 45.2626 22.8349C48.3536 24.6179 51.2906 26.5789 53.9936 28.6639C54.1306 28.7679 54.2196 28.9229 54.2416 29.0929C54.6916 32.4739 54.9206 35.9939 54.9206 39.5569C54.9206 43.1259 54.6926 46.6499 54.2416 50.0299C54.2186 50.1999 54.1296 50.3539 53.9936 50.4599C52.4426 51.6519 50.8056 52.8119 49.1286 53.9059C48.9216 54.0419 48.6576 54.0479 48.4445 53.9229L48.0256 53.6779C47.9446 53.6309 47.8746 53.5659 47.8206 53.4889C47.1976 52.5939 46.1856 52.0599 45.1146 52.0599C43.3196 52.0599 41.8596 53.5109 41.8596 55.2959C41.8596 55.9239 42.0396 56.5339 42.3796 57.0619C42.4796 57.2159 42.5086 57.4049 42.4616 57.5819C42.4146 57.7589 42.2956 57.9079 42.1326 57.9919C39.9546 59.1209 37.8406 60.1039 35.8486 60.9159C35.7706 60.9459 35.6876 60.9629 35.6046 60.9629ZM18.2426 49.5839C20.8356 51.5679 23.6516 53.4399 26.6166 55.1519C29.5746 56.8569 32.5986 58.3559 35.6066 59.6089C37.3096 58.9069 39.1036 58.0779 40.9496 57.1369C40.6946 56.5599 40.5606 55.9339 40.5606 55.2949C40.5606 52.7929 42.6046 50.7579 45.1166 50.7579C46.5486 50.7579 47.9006 51.4379 48.7726 52.5849C50.2226 51.6279 51.6386 50.6219 52.9896 49.5919C53.4096 46.3499 53.6216 42.9749 53.6216 39.5569C53.6216 36.1449 53.4096 32.7739 52.9896 29.5309C50.3906 27.5429 47.5736 25.6699 44.6136 23.9629C41.6666 22.2629 38.6396 20.7639 35.6136 19.5049C32.6336 20.7389 29.6076 22.2379 26.6156 23.9629C23.6996 25.6469 20.8836 27.5199 18.2426 29.5319C17.8236 32.7779 17.6106 36.1489 17.6106 39.5569C17.6096 42.9659 17.8226 46.3379 18.2426 49.5839ZM35.6146 45.4509C32.3666 45.4509 29.7236 42.8059 29.7236 39.5569C29.7236 36.3019 32.3666 33.6539 35.6146 33.6539C38.8636 33.6539 41.5076 36.3019 41.5076 39.5569C41.5076 42.8069 38.8636 45.4509 35.6146 45.4509ZM35.6146 34.9549C33.0836 34.9549 31.0246 37.0189 31.0246 39.5569C31.0246 42.0889 33.0836 44.1499 35.6146 44.1499C38.1466 44.1499 40.2076 42.0889 40.2076 39.5569C40.2066 37.0199 38.1466 34.9549 35.6146 34.9549Z" fill="#E8AAAA"/>
<path d="M64.3188 39.5581C70.0398 46.8121 72.1978 54.0161 69.3058 59.0051C66.4258 64.0031 59.1138 65.7411 49.9658 64.4131C51.6358 60.2441 52.8858 55.3231 53.5988 49.9441C57.9058 46.6361 61.5358 43.0921 64.3188 39.5581Z" fill="#6536A5" fill-opacity="0.42"/>
<path d="M55.5878 65.4922C53.7888 65.4922 51.8657 65.3462 49.8717 65.0562C49.6747 65.0272 49.5017 64.9102 49.4017 64.7372C49.3017 64.5652 49.2878 64.3562 49.3618 64.1712C51.0428 59.9762 52.2517 55.1602 52.9538 49.8602C52.9758 49.6892 53.0658 49.5352 53.2018 49.4292C57.4298 46.1822 60.9967 42.7262 63.8067 39.1562C63.9297 39.0002 64.1178 38.9082 64.3178 38.9082C64.5168 38.9082 64.7048 39.0002 64.8287 39.1562C70.9578 46.9272 72.7948 54.2822 69.8678 59.3322C67.5788 63.3042 62.5068 65.4922 55.5878 65.4922ZM50.8728 63.8802C52.5138 64.0882 54.0978 64.1932 55.5888 64.1932C62.0238 64.1932 66.6948 62.2362 68.7428 58.6812C71.3108 54.2492 69.6928 47.6932 64.3098 40.6092C61.5668 43.9722 58.1728 47.2282 54.2068 50.2972C53.5298 55.2782 52.4088 59.8422 50.8728 63.8802Z" fill="#E8AAAA"/>
<path d="M1.92356 20.1009C4.80256 15.1029 12.1156 13.3729 21.2636 14.7019C20.9416 15.5119 20.6285 16.3419 20.3465 17.2109C20.0035 17.1139 19.6536 17.0649 19.2826 17.0649C17.1346 17.0649 15.3846 18.8129 15.3846 20.9699C15.3846 22.8059 16.6546 24.3479 18.3526 24.7579V24.7779C18.0816 26.1649 17.8446 27.5989 17.6516 29.0629C17.6416 29.1029 17.6416 29.1419 17.6306 29.1809C13.3246 32.4909 9.69356 36.0239 6.91056 39.5589C1.19256 32.2939 -0.96544 25.0989 1.92356 20.1009Z" fill="#6536A5" fill-opacity="0.42"/>
<path d="M6.9126 40.2081C6.7136 40.2081 6.5256 40.1161 6.4016 39.9601C0.277596 32.1841 -1.5604 24.8261 1.3606 19.7751C3.6466 15.8061 8.7146 13.6211 15.6286 13.6211C17.4306 13.6211 19.3576 13.7681 21.3556 14.0571C21.5526 14.0861 21.7256 14.2041 21.8256 14.3751C21.9246 14.5471 21.9406 14.7561 21.8666 14.9401C21.4906 15.8861 21.2036 16.6701 20.9646 17.4091C20.8576 17.7421 20.5056 17.9301 20.1706 17.8351C19.8796 17.7521 19.5896 17.7131 19.2826 17.7131C17.4926 17.7131 16.0356 19.1731 16.0356 20.9681C16.0356 22.4751 17.0516 23.7731 18.5066 24.1241C18.7986 24.1941 19.0036 24.4561 19.0036 24.7561C19.0036 24.7981 18.9996 24.8601 18.9916 24.9011C18.7186 26.2981 18.4846 27.7261 18.2976 29.1461C18.2816 29.2511 18.2736 29.2971 18.2616 29.3441C18.2246 29.4841 18.1426 29.6071 18.0286 29.6951C13.7866 32.9551 10.2186 36.4091 7.4236 39.9601C7.3006 40.1161 7.1126 40.2081 6.9126 40.2081ZM15.6296 14.9211C9.19959 14.9211 4.53159 16.8751 2.48659 20.4251C-0.0764127 24.8581 1.54359 31.4181 6.92259 38.5071C9.65459 35.1571 13.0526 31.9031 17.0336 28.8211C17.1856 27.6511 17.3826 26.4221 17.6106 25.2041C15.8916 24.5321 14.7356 22.8691 14.7356 20.9701C14.7356 18.4581 16.7756 16.4141 19.2826 16.4141C19.4976 16.4141 19.7066 16.4291 19.9136 16.4571C20.0466 16.0711 20.1926 15.6691 20.3576 15.2351C18.7116 15.0261 17.1246 14.9211 15.6296 14.9211Z" fill="#E8AAAA"/>
<path d="M17.6329 49.9351C18.3439 55.3231 19.5959 60.2351 21.2639 64.4131C12.1159 65.7411 4.80395 64.0031 1.92395 59.0051C-0.966053 54.0161 1.19295 46.8121 6.91295 39.5581C9.69595 43.0921 13.3269 46.6261 17.6329 49.9351Z" fill="#FB7255" fill-opacity="0.57"/>
<path d="M15.6407 65.4922C8.72174 65.4922 3.64975 63.3042 1.36075 59.3292C-1.56325 54.2802 0.273738 46.9272 6.40274 39.1552C6.52574 38.9992 6.71375 38.9072 6.91275 38.9072C7.11175 38.9072 7.30075 38.9992 7.42375 39.1552C10.2207 42.7082 13.7887 46.1612 18.0287 49.4202C18.1657 49.5252 18.2547 49.6802 18.2777 49.8512C18.9747 55.1332 20.1827 59.9522 21.8677 64.1722C21.9417 64.3572 21.9268 64.5652 21.8278 64.7382C21.7278 64.9102 21.5547 65.0272 21.3577 65.0562C19.3637 65.3462 17.4397 65.4922 15.6407 65.4922ZM6.92175 40.6072C1.53975 47.6912 -0.0792542 54.2492 2.48575 58.6782C4.53375 62.2352 9.20574 64.1922 15.6407 64.1922C17.1327 64.1922 18.7167 64.0872 20.3587 63.8792C18.8177 59.8192 17.6967 55.2532 17.0237 50.2862C13.0477 47.2092 9.65375 43.9572 6.92175 40.6072Z" fill="#FB7354"/>
<path d="M55.9428 14.779C55.9428 16.927 57.6898 18.675 59.8378 18.675C61.7118 18.675 63.2838 17.347 63.6538 15.59L63.7808 15.619C66.2308 16.585 68.1358 18.07 69.3058 20.1C72.1978 25.098 70.0388 32.304 64.3188 39.557C61.5368 36.022 57.9058 32.489 53.5988 29.179C52.8858 23.79 51.6358 18.879 49.9658 14.701C52.0478 14.398 54.0288 14.253 55.8838 14.271L55.9708 14.28C55.9528 14.448 55.9428 14.613 55.9428 14.779Z" fill="#FB7255" fill-opacity="0.57"/>
<path d="M64.3189 40.2081C64.1199 40.2071 63.9309 40.1161 63.8079 39.9601C61.0129 36.4091 57.4459 32.9551 53.2029 29.6951C53.0669 29.5901 52.9769 29.4351 52.9549 29.2641C52.2549 23.9731 51.0469 19.1551 49.3629 14.9421C49.2889 14.7571 49.3039 14.5481 49.4029 14.3761C49.5029 14.2041 49.6749 14.0871 49.8729 14.0581C51.8719 13.7681 53.7879 13.6201 55.5679 13.6201L55.8909 13.6211C55.9109 13.6221 56.0169 13.6321 56.0359 13.6341C56.2089 13.6521 56.3669 13.7371 56.4769 13.8711C56.5849 14.0071 56.6359 14.1801 56.6179 14.3511C56.6009 14.4941 56.5939 14.6361 56.5939 14.7791C56.5939 16.5691 58.0489 18.0241 59.8379 18.0241C61.3669 18.0241 62.7049 16.9441 63.0189 15.4561C63.0549 15.2851 63.1579 15.1361 63.3049 15.0421C63.4519 14.9481 63.6289 14.9191 63.8009 14.9561L63.9279 14.9851C66.6859 16.0651 68.6539 17.6671 69.8699 19.7751C72.7949 24.8331 70.9579 32.1891 64.8299 39.9601C64.7049 40.1161 64.5179 40.2081 64.3189 40.2081ZM54.2069 28.8281C58.1859 31.9071 61.5799 35.1601 64.3099 38.5071C69.6919 31.4241 71.3109 24.8641 68.7439 20.4261C67.7589 18.7181 66.1889 17.3811 64.0729 16.4461C63.3989 18.1511 61.7219 19.3261 59.8379 19.3261C57.3799 19.3261 55.3709 17.3631 55.2959 14.9221C53.8989 14.9351 52.4149 15.0391 50.8719 15.2361C52.4109 19.2861 53.5319 23.8541 54.2069 28.8281Z" fill="#FB7354"/>
<path d="M49.9657 64.413C46.5397 72.995 41.3857 78.462 35.6137 78.462C29.8447 78.462 24.6907 72.995 21.2627 64.413C25.7057 63.769 30.5857 62.393 35.6037 60.312C40.6347 62.393 45.5147 63.77 49.9657 64.413Z" fill="#DE1F94" fill-opacity="0.47"/>
<path d="M35.6148 79.1121C29.7808 79.1121 24.3308 73.8411 20.6608 64.6541C20.5868 64.4691 20.6018 64.2601 20.7008 64.0881C20.8008 63.9161 20.9738 63.7991 21.1708 63.7701C25.6558 63.1211 30.4278 61.7551 35.3558 59.7121C35.5138 59.6471 35.6938 59.6451 35.8528 59.7121C40.7978 61.7571 45.5778 63.1221 50.0588 63.7701C50.2558 63.7981 50.4288 63.9161 50.5288 64.0881C50.6288 64.2611 50.6438 64.4691 50.5698 64.6541C46.9018 73.8421 41.4518 79.1121 35.6148 79.1121ZM22.1788 64.9301C25.6268 73.1301 30.4968 77.8121 35.6148 77.8121C40.7358 77.8121 45.6058 73.1301 49.0528 64.9311C44.7808 64.2381 40.2628 62.9221 35.6058 61.0161C30.9628 62.9211 26.4528 64.2351 22.1788 64.9301Z" fill="#E8AAAA"/>
<path d="M35.6147 0.651855C41.3857 0.651855 46.5407 6.11984 49.9667 14.7008C45.5257 15.3458 40.6357 16.7218 35.6147 18.8018C30.5977 16.7218 25.7157 15.3458 21.2637 14.7008C21.2837 14.6418 21.3117 14.5838 21.3327 14.5248C24.7597 6.04084 29.8837 0.651855 35.6147 0.651855Z" fill="#DE1F94" fill-opacity="0.47"/>
<path d="M35.6147 19.452C35.5297 19.452 35.4457 19.435 35.3657 19.402C30.4417 17.36 25.6667 15.995 21.1707 15.344C20.9787 15.316 20.8087 15.203 20.7087 15.037C20.6077 14.871 20.5867 14.669 20.6507 14.485C20.6547 14.474 20.6927 14.375 20.6977 14.364C24.3957 5.20598 29.8207 0.000976562 35.6147 0.000976562C41.4507 0.000976562 46.9017 5.27098 50.5697 14.459C50.6437 14.645 50.6287 14.852 50.5287 15.025C50.4297 15.197 50.2567 15.314 50.0597 15.343C45.6267 15.986 40.7177 17.389 35.8637 19.401C35.7837 19.435 35.6997 19.452 35.6147 19.452ZM22.1767 14.184C26.4607 14.879 30.9757 16.195 35.6147 18.099C40.2537 16.197 44.7687 14.881 49.0527 14.185C45.6067 5.98597 40.7357 1.30298 35.6147 1.30298C30.4987 1.30298 25.6227 5.98696 22.1767 14.184Z" fill="#E8AAAA"/>
<path d="M35.6145 79.112C29.7805 79.112 24.3306 73.841 20.6606 64.654C18.9356 60.333 17.7005 55.409 16.9885 50.02C16.5385 46.636 16.3105 43.116 16.3105 39.557C16.3105 35.998 16.5385 32.478 16.9885 29.093C17.0045 28.99 17.0115 28.945 17.0235 28.9C17.1995 27.53 17.4376 26.075 17.7166 24.651C17.7856 24.299 18.1226 24.063 18.4796 24.138C18.8316 24.206 19.0616 24.548 18.9926 24.901C18.7196 26.298 18.4856 27.726 18.2986 29.146C18.2826 29.251 18.2745 29.297 18.2625 29.344C17.8355 32.593 17.6105 36.055 17.6105 39.557C17.6105 43.059 17.8355 46.521 18.2775 49.849C18.9745 55.132 20.1825 59.951 21.8675 64.171C25.3295 72.84 30.3405 77.811 35.6145 77.811C40.8905 77.811 45.9025 72.84 49.3625 64.171C51.0435 59.975 52.2525 55.159 52.9545 49.858C53.3975 46.534 53.6215 43.068 53.6215 39.556C53.6215 36.051 53.3975 32.588 52.9545 29.264C52.2545 23.972 51.0465 19.154 49.3625 14.941C45.9015 6.27201 40.8905 1.30099 35.6145 1.30099C30.3785 1.30099 25.3926 6.209 21.9356 14.767L21.2645 14.7L21.8685 14.94C21.4925 15.886 21.2056 16.67 20.9666 17.409C20.9536 17.449 20.9375 17.487 20.9175 17.523C20.8105 17.734 20.5905 17.877 20.3385 17.877C19.9795 17.877 19.6886 17.587 19.6886 17.228C19.6886 17.142 19.7086 17.053 19.7426 16.97C19.9886 16.215 20.2805 15.416 20.6615 14.459C20.6625 14.456 20.6986 14.366 20.6996 14.363C24.3976 5.20501 29.8226 0 35.6166 0C41.4526 0 46.9035 5.27001 50.5715 14.458C52.2955 18.771 53.5316 23.694 54.2456 29.093C54.6956 32.473 54.9245 35.993 54.9245 39.556C54.9245 43.125 54.6966 46.649 54.2456 50.029C53.5286 55.436 52.2925 60.357 50.5715 64.653C46.9015 73.842 41.4515 79.112 35.6145 79.112Z" fill="#6536A5" fill-opacity="0.59"/>
<path d="M15.6457 65.4928C8.74975 65.4928 3.67675 63.3488 1.36075 59.3288C-1.56325 54.2798 0.273738 46.9268 6.40274 39.1548C9.26374 35.5188 12.9087 31.9898 17.2367 28.6638C19.9837 26.5558 22.9208 24.5948 25.9658 22.8368C29.0908 21.0348 32.2537 19.4758 35.3677 18.1998C40.3887 16.1198 45.2697 14.7248 49.8717 14.0568C51.9927 13.7478 54.0167 13.6018 55.8897 13.6208C56.2477 13.6248 56.5357 13.9188 56.5337 14.2778C56.5297 14.6348 56.2398 14.9218 55.8838 14.9218C55.8118 14.9228 55.6757 14.9198 55.5697 14.9198C53.8497 14.9198 51.9977 15.0628 50.0587 15.3448C45.6257 15.9878 40.7167 17.3908 35.8627 19.4028C32.7987 20.6568 29.6887 22.1908 26.6147 23.9638C23.6197 25.6938 20.7307 27.6218 18.0287 29.6958C13.7867 32.9558 10.2188 36.4098 7.42375 39.9608C1.64175 47.2918 -0.157254 54.1148 2.48575 58.6798C5.12275 63.2568 11.9327 65.1148 21.1697 63.7708C25.6537 63.1218 30.4267 61.7558 35.3547 59.7128C37.3127 58.9158 39.3897 57.9498 41.5307 56.8398C41.9467 56.6118 42.5037 56.9348 42.5037 57.4048C42.5037 57.6618 42.3548 57.8838 42.1378 57.9898C42.1358 57.9908 42.1338 57.9918 42.1338 57.9918C39.9558 59.1208 37.8417 60.1038 35.8497 60.9158C30.8257 62.9978 25.9487 64.3928 21.3567 65.0578C19.3427 65.3488 17.4317 65.4928 15.6457 65.4928Z" fill="#6536A5" fill-opacity="0.59"/>
<path d="M48.7758 54.0132C48.5628 54.0132 48.3548 53.9092 48.2308 53.7182C48.0348 53.4172 48.1188 53.0142 48.4188 52.8192C50.0688 51.7422 51.6788 50.6022 53.2018 49.4292C57.4298 46.1822 60.9968 42.7262 63.8068 39.1562C69.5888 31.8262 71.3878 24.9992 68.7428 20.4272C67.6768 18.5792 65.9268 17.1652 63.5418 16.2252C63.2078 16.0932 63.0438 15.7162 63.1758 15.3822C63.3068 15.0482 63.6848 14.8822 64.0188 15.0162C66.6848 16.0672 68.6528 17.6682 69.8688 19.7772C72.7938 24.8352 70.9568 32.1912 64.8288 39.9622C61.9518 43.6162 58.3068 47.1492 53.9938 50.4622C52.4448 51.6542 50.8078 52.8142 49.1298 53.9082C49.0198 53.9782 48.8968 54.0132 48.7758 54.0132Z" fill="#6536A5" fill-opacity="0.59"/>
<path d="M55.5876 65.4921C53.7886 65.4921 51.8656 65.3461 49.8716 65.0561C45.2836 64.3921 40.3996 62.9981 35.3556 60.9121C32.2136 59.6171 29.0546 58.0581 25.9656 56.2771C22.8686 54.4891 19.9316 52.5291 17.2346 50.4491C12.9096 47.1261 9.2646 43.5961 6.4016 39.9591C0.277596 32.1831 -1.5604 24.8251 1.3606 19.7741C3.6466 15.8051 8.7146 13.6201 15.6286 13.6201C17.4306 13.6201 19.3576 13.7671 21.3556 14.0561C25.9576 14.7231 30.8386 16.1171 35.8616 18.2001C39.0206 19.5011 42.1836 21.0601 45.2616 22.8351C48.3526 24.6181 51.2896 26.5791 53.9926 28.6641C58.3196 31.9891 61.9656 35.5191 64.8266 39.1541C70.9556 46.9251 72.7926 54.2801 69.8656 59.3301C67.5786 63.3041 62.5066 65.4921 55.5876 65.4921ZM15.6296 14.9211C9.19959 14.9211 4.53159 16.8751 2.48659 20.4251C-0.154413 24.9921 1.6456 31.8201 7.4236 39.1551C10.2206 42.7081 13.7886 46.1611 18.0286 49.4201C20.6816 51.4651 23.5696 53.3941 26.6156 55.1521C29.6546 56.9041 32.7626 58.4381 35.8516 59.7121C40.7966 61.7571 45.5766 63.1221 50.0576 63.7701C51.9906 64.0511 53.8506 64.1931 55.5866 64.1931C62.0216 64.1931 66.6926 62.2361 68.7406 58.6811C71.3866 54.1151 69.5886 47.2921 63.8056 39.9601C61.0106 36.4091 57.4436 32.9551 53.2006 29.6951C50.5426 27.6441 47.6526 25.7161 44.6116 23.9631C41.5846 22.2161 38.4726 20.6821 35.3656 19.4031C30.4396 17.3601 25.6646 15.9951 21.1686 15.3441C19.2336 15.0641 17.3696 14.9211 15.6296 14.9211Z" fill="#6536A5" fill-opacity="0.59"/>
<path d="M35.6146 45.4508C32.3666 45.4508 29.7236 42.8058 29.7236 39.5568C29.7236 36.3018 32.3666 33.6538 35.6146 33.6538C38.8636 33.6538 41.5076 36.3018 41.5076 39.5568C41.5076 42.8068 38.8636 45.4508 35.6146 45.4508ZM35.6146 34.9548C33.0836 34.9548 31.0246 37.0188 31.0246 39.5568C31.0246 42.0888 33.0836 44.1498 35.6146 44.1498C38.1466 44.1498 40.2076 42.0888 40.2076 39.5568C40.2066 37.0198 38.1466 34.9548 35.6146 34.9548Z" fill="#6536A5" fill-opacity="0.59"/>
<path d="M19.2838 25.5241C18.8998 25.5241 18.5308 25.4771 18.1858 25.3841C16.1608 24.8951 14.7358 23.0771 14.7358 20.9681C14.7358 18.4561 16.7758 16.4121 19.2828 16.4121C19.7098 16.4121 20.1158 16.4691 20.5228 16.5831C22.4738 17.1301 23.8388 18.9331 23.8388 20.9681C23.8388 23.4801 21.7948 25.5241 19.2838 25.5241ZM19.2838 17.7141C17.4938 17.7141 16.0368 19.1741 16.0368 20.9691C16.0368 22.4761 17.0528 23.7741 18.5078 24.1251C18.7588 24.1921 19.0148 24.2241 19.2848 24.2241C21.0798 24.2241 22.5398 22.7641 22.5398 20.9691C22.5398 19.5141 21.5668 18.2261 20.1728 17.8361C19.8798 17.7531 19.5898 17.7141 19.2838 17.7141Z" fill="#6536A5" fill-opacity="0.59"/>
<path d="M45.1165 59.8518C43.5625 59.8518 42.1325 59.0728 41.2895 57.7668C40.8125 57.0288 40.5615 56.1738 40.5615 55.2958C40.5615 52.7938 42.6055 50.7588 45.1175 50.7588C46.6145 50.7588 48.0245 51.5018 48.8895 52.7458C49.4035 53.5128 49.6715 54.3918 49.6715 55.2958C49.6705 57.8078 47.6275 59.8518 45.1165 59.8518ZM45.1165 52.0598C43.3215 52.0598 41.8615 53.5108 41.8615 55.2958C41.8615 55.9238 42.0415 56.5338 42.3815 57.0618C42.9845 57.9948 44.0065 58.5508 45.1165 58.5508C46.9105 58.5508 48.3705 57.0908 48.3705 55.2958C48.3705 54.6498 48.1795 54.0218 47.8155 53.4788C47.1995 52.5938 46.1875 52.0598 45.1165 52.0598Z" fill="#6536A5" fill-opacity="0.59"/>
<path d="M59.837 19.3251C57.331 19.3251 55.292 17.2861 55.292 14.7791C55.292 14.5901 55.304 14.4011 55.324 14.2091C55.612 11.9341 57.552 10.2251 59.837 10.2251C62.349 10.2251 64.393 12.2681 64.393 14.7801C64.393 15.1031 64.359 15.4151 64.288 15.7311C63.85 17.8101 61.978 19.3251 59.837 19.3251ZM59.837 11.5251C58.205 11.5251 56.82 12.7441 56.615 14.3621C56.6 14.4951 56.593 14.6361 56.593 14.7791C56.593 16.5691 58.048 18.0241 59.837 18.0241C61.366 18.0241 62.704 16.9441 63.018 15.4561C63.069 15.2231 63.092 15.0101 63.092 14.7791C63.092 12.9851 61.632 11.5251 59.837 11.5251Z" fill="#6536A5" fill-opacity="0.59"/>
</svg>
